<?xml version="1.0" encoding="UTF-8" standalone="no"?>
<!-- Created with Inkscape (http://www.inkscape.org/) -->

<svg
   xmlns:dc="http://purl.org/dc/elements/1.1/"
   xmlns:cc="http://creativecommons.org/ns#"
   xmlns:rdf="http://www.w3.org/1999/02/22-rdf-syntax-ns#"
   xmlns:svg="http://www.w3.org/2000/svg"
   xmlns="http://www.w3.org/2000/svg"
   xmlns:sodipodi="http://sodipodi.sourceforge.net/DTD/sodipodi-0.dtd"
   xmlns:inkscape="http://www.inkscape.org/namespaces/inkscape"
   width="20.082081mm"
   height="23.264128mm"
   viewBox="0 0 20.082081 23.264128"
   version="1.1"
   id="svg6140"
   sodipodi:docname="logo-woman-footer.svg"
   inkscape:version="0.92.4 (5da689c313, 2019-01-14)">
  <defs
     id="defs6134" />
  <sodipodi:namedview
     id="base"
     pagecolor="#ffffff"
     bordercolor="#666666"
     borderopacity="1.0"
     inkscape:pageopacity="0.0"
     inkscape:pageshadow="2"
     inkscape:zoom="3.959798"
     inkscape:cx="9.0755511"
     inkscape:cy="48.752354"
     inkscape:document-units="mm"
     inkscape:current-layer="g6115"
     showgrid="false"
     inkscape:window-width="1920"
     inkscape:window-height="1017"
     inkscape:window-x="-8"
     inkscape:window-y="-8"
     inkscape:window-maximized="1"
     fit-margin-top="0"
     fit-margin-left="0"
     fit-margin-right="0"
     fit-margin-bottom="0" />
  <metadata
     id="metadata6137">
    <rdf:RDF>
      <cc:Work
         rdf:about="">
        <dc:format>image/svg+xml</dc:format>
        <dc:type
           rdf:resource="http://purl.org/dc/dcmitype/StillImage" />
        <dc:title></dc:title>
      </cc:Work>
    </rdf:RDF>
  </metadata>
  <g
     inkscape:label="Capa 1"
     inkscape:groupmode="layer"
     id="layer1"
     transform="translate(-76.137531,-104.69532)">
    <g
       id="g6115"
       transform="translate(7.2718993,13.271071)">
      <ellipse
         ry="6.2083144"
         rx="6.915801"
         cy="97.632561"
         cx="75.781433"
         id="path4550"
         style="opacity:1;fill:#020000;fill-opacity:1;stroke:none;stroke-width:0.08244834;stroke-miterlimit:4;stroke-dasharray:1.97876005, 0.08244833999999999;stroke-dashoffset:0;stroke-opacity:1" />
      <rect
         y="102.68108"
         x="75.042847"
         height="12.00729"
         width="2.1485984"
         id="rect6032"
         style="opacity:1;fill:#000000;fill-opacity:1;stroke:none;stroke-width:0.08244834;stroke-miterlimit:4;stroke-dasharray:1.97876005, 0.08244833999999999;stroke-dashoffset:0;stroke-opacity:1" />
      <rect
         y="107.32026"
         x="70.141357"
         height="2.1831436"
         width="11.683003"
         id="rect6034"
         style="opacity:1;fill:#000000;fill-opacity:1;stroke:none;stroke-width:0.08244834;stroke-miterlimit:4;stroke-dasharray:1.97876005, 0.08244833999999999;stroke-dashoffset:0;stroke-opacity:1" />
      <ellipse
         ry="0.78456724"
         rx="0.77215254"
         cy="104.07966"
         cx="84.946548"
         id="path6042"
         style="opacity:1;fill:#000000;fill-opacity:1;stroke:none;stroke-width:0.08244834;stroke-miterlimit:4;stroke-dasharray:1.97876005, 0.08244833999999999;stroke-dashoffset:0;stroke-opacity:1" />
      <path
         inkscape:connector-curvature="0"
         d="m 84.708554,104.0887 c 0.200881,-0.4544 0.370794,-0.91786 0.494095,-1.39996 0.117685,-0.5102 0.120749,-1.03669 0.258357,-1.54229 0.01837,-0.0565 0.03677,-0.11309 0.05516,-0.16963 0,0 0.884373,-0.42066 0.884373,-0.42066 v 0 c -0.02004,0.0559 -0.04007,0.11185 -0.0601,0.16777 -0.02054,0.0626 -0.04491,0.12411 -0.06165,0.1879 -0.116637,0.44454 -0.10383,0.91248 -0.215513,1.35824 -0.116254,0.48219 -0.273294,0.93152 -0.452377,1.39218 0,0 -0.902345,0.42645 -0.902345,0.42645 z"
         id="path6060"
         style="opacity:1;fill:#000000;fill-opacity:1;stroke:none;stroke-width:0.08244834;stroke-miterlimit:4;stroke-dasharray:1.97876005, 0.08244833999999999;stroke-dashoffset:0;stroke-opacity:1" />
      <path
         inkscape:connector-curvature="0"
         d="m 85.518142,100.38918 c 0.544574,0.22729 1.106759,0.24292 1.663279,0.25255 0.59163,0.0126 1.179797,-0.0899 1.766291,-0.21317 0,0 -0.412513,0.54233 -0.412513,0.54233 v 0 c -0.584266,0.10408 -1.169737,0.19155 -1.757599,0.18904 -0.577669,-0.003 -1.158415,-0.0134 -1.728827,-0.19498 0,0 0.469369,-0.57577 0.469369,-0.57577 z"
         id="path6062"
         style="opacity:1;fill:#000000;fill-opacity:1;stroke:none;stroke-width:0.06249487;stroke-miterlimit:4;stroke-dasharray:1.49987696, 0.06249487000000000;stroke-dashoffset:0;stroke-opacity:1" />
      <path
         inkscape:connector-curvature="0"
         d="m 86.834371,103.85869 c 0.0811,-0.20909 0.184422,-0.40778 0.284625,-0.6078 0.08672,-0.17598 0.143642,-0.36471 0.213742,-0.54771 0.04805,-0.13988 0.09508,-0.28084 0.125081,-0.42599 0.0269,-0.15496 0.08357,-0.30161 0.123804,-0.45293 0.03279,-0.13512 0.03485,-0.2745 0.05859,-0.41114 0.01416,-0.1264 0.05206,-0.24682 0.08324,-0.36929 0.03385,-0.10711 0.06999,-0.21122 0.08729,-0.32278 0.0022,-0.0203 0.0043,-0.0406 0.0064,-0.0609 0,0 0.891596,-0.45183 0.891596,-0.45183 v 0 c -0.0013,0.0215 -0.0028,0.043 -0.0042,0.0646 -0.01142,0.11449 -0.02869,0.22861 -0.0828,0.33155 -0.02463,0.12405 -0.0752,0.23964 -0.08647,0.36649 -0.02737,0.13837 -0.03383,0.27751 -0.0567,0.41672 -0.03439,0.15215 -0.09363,0.29563 -0.127412,0.44792 -0.02447,0.15239 -0.06968,0.29756 -0.117604,0.44382 -0.07311,0.18593 -0.136793,0.375 -0.213889,0.55941 -0.102097,0.19411 -0.207589,0.38932 -0.2798,0.59716 0,0 -0.905453,0.42277 -0.905453,0.42277 z"
         id="path6078"
         style="opacity:1;fill:#000000;fill-opacity:1;stroke:none;stroke-width:0.08244834;stroke-miterlimit:4;stroke-dasharray:1.97876005, 0.08244833999999999;stroke-dashoffset:0;stroke-opacity:1" />
      <ellipse
         ry="0.78456724"
         rx="0.77215254"
         cy="103.80676"
         cx="87.128716"
         id="path6042-1"
         style="opacity:1;fill:#000000;fill-opacity:1;stroke:none;stroke-width:0.08244834;stroke-miterlimit:4;stroke-dasharray:1.97876007, 0.08244833999999999;stroke-dashoffset:0;stroke-opacity:1" />
    </g>
  </g>
</svg>
